<?xml version="1.0" standalone="no"?>
<!DOCTYPE svg PUBLIC "-//W3C//DTD SVG 20010904//EN"
 "http://www.w3.org/TR/2001/REC-SVG-20010904/DTD/svg10.dtd">
<svg version="1.0" xmlns="http://www.w3.org/2000/svg"
 width="260.000000pt" height="260.000000pt" viewBox="0 0 260.000000 260.000000"
 preserveAspectRatio="xMidYMid meet">
<metadata>
Created by potrace 1.14, written by Peter Selinger 2001-2017
</metadata>
<g transform="translate(0.000000,260.000000) scale(0.100000,-0.100000)"
fill="#000000" stroke="none">
<path d="M388 2593 c-2 -4 -4 -278 -3 -608 0 -523 2 -600 15 -598 8 1 49 9 90
18 213 47 454 -7 625 -139 121 -93 215 -226 266 -376 29 -86 32 -107 33 -220
1 -159 -17 -248 -76 -364 -49 -97 -172 -241 -236 -275 -12 -7 -20 -16 -18 -20
3 -4 101 -7 218 -6 188 2 241 5 323 21 11 2 33 6 48 9 47 9 169 51 241 84 157
71 336 220 440 365 104 146 198 378 221 546 4 25 9 61 12 80 9 57 10 277 1
354 -36 312 -152 575 -340 769 -171 175 -367 283 -618 338 -101 22 -124 23
-671 27 -312 2 -569 0 -571 -5z"/>
<path d="M487 1278 c-229 -58 -406 -237 -467 -470 -25 -97 -21 -255 9 -348 42
-130 121 -243 226 -322 123 -94 234 -132 385 -132 128 0 189 13 300 67 167 81
306 260 343 442 13 65 16 214 4 260 -31 123 -57 181 -125 270 -61 81 -131 138
-227 186 -140 69 -296 86 -448 47z"/>
</g>
</svg>
